<svg width="24" height="24" viewBox="0 0 24 24" fill="none" xmlns="http://www.w3.org/2000/svg">
<path fill-rule="evenodd" clip-rule="evenodd" d="M5 4C5 3.44772 4.55228 3 4 3C3.44772 3 3 3.44772 3 4V20C3 20.5523 3.44772 21 4 21H20C20.5523 21 21 20.5523 21 20C21 19.4477 20.5523 19 20 19H14.9545C14.8539 17.8983 14.5875 16.8161 14.1627 15.7905C13.6099 14.4559 12.7996 13.2433 11.7782 12.2218C10.7567 11.2004 9.5441 10.3901 8.20952 9.83733C7.18391 9.4125 6.10171 9.14612 5 9.04555V4ZM5 11.0557V19L12.9443 19C12.8505 18.1614 12.6391 17.3385 12.3149 16.5559C11.8626 15.4639 11.1997 14.4718 10.364 13.636C9.52823 12.8003 8.53608 12.1374 7.44415 11.6851C6.66151 11.3609 5.83859 11.1495 5 11.0557Z" fill="#333333"/>
</svg>
