<svg width="24" height="24" viewBox="0 0 24 24" fill="none" xmlns="http://www.w3.org/2000/svg">
<path fill-rule="evenodd" clip-rule="evenodd" d="M7 8C7 6.89543 7.89543 6 9 6H10V4H9C6.79086 4 5 5.79086 5 8V9C5 10.1046 4.10457 11 3 11H2V13H3C4.10457 13 5 13.8954 5 15V16C5 18.2091 6.79086 20 9 20H10V18H9C7.89543 18 7 17.1046 7 16V15C7 13.8053 6.47624 12.7329 5.64582 12C6.47624 11.2671 7 10.1947 7 9V8ZM15 6C16.1046 6 17 6.89543 17 8V9C17 10.1947 17.5238 11.2671 18.3542 12C17.5238 12.7329 17 13.8053 17 15V16C17 17.1046 16.1046 18 15 18H14V20H15C17.2091 20 19 18.2091 19 16V15C19 13.8954 19.8954 13 21 13H22V11H21C19.8954 11 19 10.1046 19 9V8C19 5.79086 17.2091 4 15 4H14V6H15Z" fill="#333333"/>
</svg>
