<svg width="24" height="24" viewBox="0 0 24 24" fill="none" xmlns="http://www.w3.org/2000/svg">
<path fill-rule="evenodd" clip-rule="evenodd" d="M9 6C7.89543 6 7 6.89543 7 8V9C7 11.2091 5.20914 13 3 13H2V11H3C4.10457 11 5 10.1046 5 9V8C5 5.79086 6.79086 4 9 4H10V6H9Z" fill="#333333"/>
<path fill-rule="evenodd" clip-rule="evenodd" d="M9 18C7.89543 18 7 17.1046 7 16V15C7 12.7909 5.20914 11 3 11H2V13H3C4.10457 13 5 13.8954 5 15V16C5 18.2091 6.79086 20 9 20H10V18H9Z" fill="#333333"/>
<path fill-rule="evenodd" clip-rule="evenodd" d="M15 6C16.1046 6 17 6.89543 17 8V9C17 11.2091 18.7909 13 21 13H22V11H21C19.8954 11 19 10.1046 19 9V8C19 5.79086 17.2091 4 15 4H14V6H15Z" fill="#333333"/>
<path fill-rule="evenodd" clip-rule="evenodd" d="M15 18C16.1046 18 17 17.1046 17 16V15C17 12.7909 18.7909 11 21 11H22V13H21C19.8954 13 19 13.8954 19 15V16C19 18.2091 17.2091 20 15 20H14V18H15Z" fill="#333333"/>
</svg>
