<svg width="24" height="24" viewBox="0 0 24 24" fill="none" xmlns="http://www.w3.org/2000/svg">
<path fill-rule="evenodd" clip-rule="evenodd" d="M8 8H5C4.44772 8 4 8.44772 4 9V13C4 13.5523 4.44772 14 5 14H8C8.55228 14 9 13.5523 9 13V9C9 8.44772 8.55228 8 8 8ZM5 6C3.34315 6 2 7.34315 2 9V13C2 14.6569 3.34315 16 5 16H8C9.65685 16 11 14.6569 11 13V9C11 7.34315 9.65685 6 8 6H5Z" fill="#333333"/>
<path fill-rule="evenodd" clip-rule="evenodd" d="M19 8H16C15.4477 8 15 8.44772 15 9V15C15 15.5523 15.4477 16 16 16H19C19.5523 16 20 15.5523 20 15V9C20 8.44772 19.5523 8 19 8ZM16 6C14.3431 6 13 7.34315 13 9V15C13 16.6569 14.3431 18 16 18H19C20.6569 18 22 16.6569 22 15V9C22 7.34315 20.6569 6 19 6H16Z" fill="#333333"/>
</svg>
