<svg width="24" height="24" viewBox="0 0 24 24" fill="none" xmlns="http://www.w3.org/2000/svg">
<path fill-rule="evenodd" clip-rule="evenodd" d="M14.6 5H9.4C8.24689 5 7.50235 5.00156 6.93567 5.04785C6.39235 5.09225 6.19091 5.1676 6.09202 5.21799C5.71569 5.40973 5.40973 5.71569 5.21799 6.09202C5.1676 6.19091 5.09225 6.39235 5.04785 6.93567C5.00156 7.50235 5 8.24689 5 9.4V14.6C5 15.7531 5.00156 16.4977 5.04785 17.0643C5.09225 17.6077 5.1676 17.8091 5.21799 17.908C5.40973 18.2843 5.71569 18.5903 6.09202 18.782C6.19091 18.8324 6.39235 18.9078 6.93567 18.9521C7.50235 18.9984 8.24689 19 9.4 19H14.6C15.7531 19 16.4977 18.9984 17.0643 18.9521C17.6077 18.9078 17.8091 18.8324 17.908 18.782C18.2843 18.5903 18.5903 18.2843 18.782 17.908C18.8324 17.8091 18.9078 17.6077 18.9521 17.0643C18.9984 16.4977 19 15.7531 19 14.6V9.4C19 8.24689 18.9984 7.50235 18.9521 6.93567C18.9078 6.39235 18.8324 6.19091 18.782 6.09202C18.5903 5.71569 18.2843 5.40973 17.908 5.21799C17.8091 5.1676 17.6077 5.09225 17.0643 5.04785C16.4977 5.00156 15.7531 5 14.6 5ZM3.43597 5.18404C3 6.03969 3 7.15979 3 9.4V14.6C3 16.8402 3 17.9603 3.43597 18.816C3.81947 19.5686 4.43139 20.1805 5.18404 20.564C6.03969 21 7.15979 21 9.4 21H14.6C16.8402 21 17.9603 21 18.816 20.564C19.5686 20.1805 20.1805 19.5686 20.564 18.816C21 17.9603 21 16.8402 21 14.6V9.4C21 7.15979 21 6.03969 20.564 5.18404C20.1805 4.43139 19.5686 3.81947 18.816 3.43597C17.9603 3 16.8402 3 14.6 3H9.4C7.15979 3 6.03969 3 5.18404 3.43597C4.43139 3.81947 3.81947 4.43139 3.43597 5.18404Z" fill="#333333"/>
<path d="M7.86703 14.06C7.59103 14.06 7.34103 14.028 7.11703 13.964C6.89703 13.896 6.70103 13.8 6.52903 13.676C6.35703 13.548 6.20303 13.398 6.06703 13.226L6.68503 12.524C6.88503 12.792 7.08503 12.972 7.28503 13.064C7.48903 13.156 7.69903 13.202 7.91503 13.202C8.02303 13.202 8.12103 13.188 8.20903 13.16C8.29703 13.132 8.36503 13.092 8.41303 13.04C8.46103 12.984 8.48503 12.916 8.48503 12.836C8.48503 12.776 8.46903 12.722 8.43703 12.674C8.40903 12.626 8.36903 12.584 8.31703 12.548C8.26503 12.512 8.20303 12.48 8.13103 12.452C8.05903 12.42 7.98303 12.394 7.90303 12.374C7.82303 12.35 7.74103 12.33 7.65703 12.314C7.42503 12.262 7.22303 12.198 7.05103 12.122C6.87903 12.046 6.73503 11.954 6.61903 11.846C6.50703 11.734 6.42303 11.608 6.36703 11.468C6.31103 11.324 6.28303 11.164 6.28303 10.988C6.28303 10.8 6.32503 10.628 6.40903 10.472C6.49703 10.312 6.61303 10.176 6.75703 10.064C6.90503 9.948 7.07503 9.86 7.26703 9.8C7.45903 9.736 7.65903 9.704 7.86703 9.704C8.14303 9.704 8.37903 9.734 8.57503 9.794C8.77503 9.85 8.94503 9.932 9.08503 10.04C9.22903 10.148 9.35103 10.278 9.45103 10.43L8.82103 11.036C8.73703 10.932 8.64503 10.846 8.54503 10.778C8.44903 10.71 8.34503 10.658 8.23303 10.622C8.12503 10.586 8.01303 10.568 7.89703 10.568C7.77703 10.568 7.67303 10.584 7.58503 10.616C7.50103 10.644 7.43503 10.686 7.38703 10.742C7.33903 10.794 7.31503 10.858 7.31503 10.934C7.31503 11.002 7.33503 11.06 7.37503 11.108C7.41503 11.156 7.46903 11.2 7.53703 11.24C7.60503 11.276 7.68303 11.308 7.77103 11.336C7.85903 11.36 7.95103 11.38 8.04703 11.396C8.26703 11.44 8.46503 11.498 8.64103 11.57C8.82103 11.642 8.97503 11.73 9.10303 11.834C9.23503 11.938 9.33503 12.062 9.40303 12.206C9.47503 12.346 9.51103 12.51 9.51103 12.698C9.51103 12.99 9.43903 13.238 9.29503 13.442C9.15503 13.642 8.96103 13.796 8.71303 13.904C8.46903 14.008 8.18703 14.06 7.86703 14.06Z" fill="black"/>
<path d="M11.2138 14L9.53377 9.8H10.5958L11.4058 11.942C11.4538 12.066 11.4938 12.174 11.5258 12.266C11.5618 12.358 11.5918 12.444 11.6158 12.524C11.6438 12.604 11.6678 12.686 11.6878 12.77C11.7118 12.85 11.7378 12.942 11.7658 13.046H11.5798C11.6118 12.91 11.6438 12.79 11.6758 12.686C11.7078 12.578 11.7438 12.468 11.7838 12.356C11.8238 12.24 11.8738 12.102 11.9338 11.942L12.7138 9.8H13.7578L12.0658 14H11.2138Z" fill="black"/>
<path d="M15.8376 14.06C15.5016 14.06 15.1976 14.006 14.9256 13.898C14.6536 13.79 14.4196 13.638 14.2236 13.442C14.0276 13.246 13.8776 13.016 13.7736 12.752C13.6696 12.484 13.6176 12.194 13.6176 11.882C13.6176 11.57 13.6716 11.284 13.7796 11.024C13.8916 10.76 14.0496 10.53 14.2536 10.334C14.4576 10.138 14.6976 9.986 14.9736 9.878C15.2536 9.77 15.5576 9.716 15.8856 9.716C16.1176 9.716 16.3356 9.746 16.5396 9.806C16.7476 9.866 16.9356 9.948 17.1036 10.052C17.2716 10.156 17.4136 10.276 17.5296 10.412L16.9116 11.066C16.8116 10.97 16.7076 10.89 16.5996 10.826C16.4956 10.762 16.3836 10.712 16.2636 10.676C16.1436 10.636 16.0156 10.616 15.8796 10.616C15.7036 10.616 15.5416 10.648 15.3936 10.712C15.2496 10.776 15.1216 10.866 15.0096 10.982C14.9016 11.094 14.8176 11.228 14.7576 11.384C14.6976 11.536 14.6676 11.702 14.6676 11.882C14.6676 12.062 14.6996 12.23 14.7636 12.386C14.8276 12.542 14.9156 12.678 15.0276 12.794C15.1396 12.906 15.2716 12.996 15.4236 13.064C15.5796 13.128 15.7456 13.16 15.9216 13.16C16.0456 13.16 16.1616 13.14 16.2696 13.1C16.3816 13.06 16.4776 13.006 16.5576 12.938C16.6376 12.87 16.7016 12.79 16.7496 12.698C16.7976 12.602 16.8216 12.5 16.8216 12.392V12.236L16.9536 12.44H15.7956V11.642H17.7696C17.7776 11.686 17.7836 11.746 17.7876 11.822C17.7916 11.898 17.7936 11.972 17.7936 12.044C17.7976 12.116 17.7996 12.17 17.7996 12.206C17.7996 12.478 17.7496 12.728 17.6496 12.956C17.5536 13.18 17.4176 13.374 17.2416 13.538C17.0656 13.702 16.8576 13.83 16.6176 13.922C16.3776 14.014 16.1176 14.06 15.8376 14.06Z" fill="black"/>
</svg>
