<svg width="24" height="24" viewBox="0 0 24 24" fill="none" xmlns="http://www.w3.org/2000/svg">
<rect width="24" height="24" fill="white"/>
<path fill-rule="evenodd" clip-rule="evenodd" d="M15.6 5H8.4C7.24689 5 6.50235 5.00156 5.93567 5.04785C5.39235 5.09225 5.19091 5.1676 5.09202 5.21799C4.71569 5.40973 4.40973 5.71569 4.21799 6.09202C4.1676 6.19091 4.09225 6.39235 4.04785 6.93567C4.00156 7.50235 4 8.24689 4 9.4V14.6C4 15.7531 4.00156 16.4977 4.04785 17.0643C4.09225 17.6077 4.1676 17.8091 4.21799 17.908C4.40973 18.2843 4.71569 18.5903 5.09202 18.782C5.19091 18.8324 5.39235 18.9078 5.93567 18.9521C6.50235 18.9984 7.24689 19 8.4 19H15.6C16.7531 19 17.4977 18.9984 18.0643 18.9521C18.6077 18.9078 18.8091 18.8324 18.908 18.782C19.2843 18.5903 19.5903 18.2843 19.782 17.908C19.8324 17.8091 19.9078 17.6077 19.9521 17.0643C19.9984 16.4977 20 15.7531 20 14.6V9.4C20 8.24689 19.9984 7.50235 19.9521 6.93567C19.9078 6.39235 19.8324 6.19091 19.782 6.09202C19.5903 5.71569 19.2843 5.40973 18.908 5.21799C18.8091 5.1676 18.6077 5.09225 18.0643 5.04785C17.4977 5.00156 16.7531 5 15.6 5ZM2.43597 5.18404C2 6.03969 2 7.15979 2 9.4V14.6C2 16.8402 2 17.9603 2.43597 18.816C2.81947 19.5686 3.43139 20.1805 4.18404 20.564C5.03969 21 6.15979 21 8.4 21H15.6C17.8402 21 18.9603 21 19.816 20.564C20.5686 20.1805 21.1805 19.5686 21.564 18.816C22 17.9603 22 16.8402 22 14.6V9.4C22 7.15979 22 6.03969 21.564 5.18404C21.1805 4.43139 20.5686 3.81947 19.816 3.43597C18.9603 3 17.8402 3 15.6 3H8.4C6.15979 3 5.03969 3 4.18404 3.43597C3.43139 3.81947 2.81947 4.43139 2.43597 5.18404Z" fill="#333333"/>
<path fill-rule="evenodd" clip-rule="evenodd" d="M20 10H4V8H20V10Z" fill="#333333"/>
<circle cx="17.5" cy="6.5" r="1" fill="#333333"/>
</svg>
